<svg width="274" height="219" viewBox="0 0 274 219" fill="none" xmlns="http://www.w3.org/2000/svg">
<path d="M162.4 162.6C166.6 166.6 168.4 172.6 166.8 178.2C165.4 183.8 161 188 155.4 189.6C149.8 191 143.8 189.4 139.8 185.2L87 132.4L34.2 185.2C29.6 189.8 22.6 191.2 16.6 188.6C10.8 186.2 6.8 180.4 6.8 173.8V61.6C6.8 52.8 14 45.6 22.8 45.6C31.6 45.6 38.8 52.8 38.8 61.6V135.2L75.6 98.4C82 92.2 92 92.2 98.4 98.4L162.4 162.6ZM261.259 162.8C267.459 169 267.459 179.2 261.259 185.4C258.059 188.6 254.059 190 249.859 190C245.859 190 241.659 188.6 238.659 185.4L179.059 126H153.659C144.859 126 137.659 118.8 137.659 110C137.659 101 144.859 93.8 153.659 93.8H185.859C190.059 93.8 194.059 95.6 197.059 98.6L261.259 162.8ZM185.859 77.8C176.859 77.8 169.659 70.6 169.659 61.8C169.659 53 176.859 45.8 185.859 45.8C194.659 45.8 201.859 53 201.859 61.8C201.859 70.6 194.659 77.8 185.859 77.8Z" fill="#D3D3D1"/>
<path d="M185.945 94H86.5V132.5L134.5 180L139.228 184.728C142.604 188.104 147.182 190 151.956 190H161H249.678C253.739 190 257.648 188.452 260.608 185.671C267.133 179.541 267.343 169.245 261.072 162.855L198.792 99.3923C195.407 95.9432 190.777 94 185.945 94Z" fill="#D3D3D1"/>
</svg>
