<svg width="260" height="146" viewBox="0 0 260 146" fill="none" xmlns="http://www.w3.org/2000/svg">
<path fill-rule="evenodd" clip-rule="evenodd" d="M83.8408 49C78.8497 48.1145 73.542 49.5812 69.6 53.4L32.8 90.2V16.6C32.8 7.79999 25.6 0.599988 16.8 0.599988C8 0.599988 0.8 7.79999 0.8 16.6V128.8C0.8 135.4 4.8 141.2 10.6 143.6C16.6 146.2 23.6 144.8 28.2 140.2L80.701 87.699L128.5 135L133.228 139.728C133.617 140.117 134.022 140.486 134.441 140.835C137.866 144.037 142.537 145.497 147.153 145H155H243.678C243.708 145 243.737 145 243.767 145C243.798 145 243.829 145 243.859 145C248.059 145 252.059 143.6 255.259 140.4C261.459 134.2 261.459 124 255.259 117.8L242.306 104.847L192.792 54.3923C190.656 52.2161 188.025 50.6393 185.16 49.772C183.475 49.1404 181.686 48.8 179.859 48.8H147.659C146.802 48.8 145.96 48.8683 145.138 49H83.8408ZM163.659 16.8C163.659 25.6 170.859 32.8 179.859 32.8C188.659 32.8 195.859 25.6 195.859 16.8C195.859 7.99999 188.659 0.799997 179.859 0.799997C170.859 0.799997 163.659 7.99999 163.659 16.8Z" fill="#D3D3D1"/>
</svg>
